<?xml version="1.0" encoding="UTF-8" standalone="no"?>
<svg
   xmlns:dc="http://purl.org/dc/elements/1.1/"
   xmlns:cc="http://creativecommons.org/ns#"
   xmlns:rdf="http://www.w3.org/1999/02/22-rdf-syntax-ns#"
   xmlns:svg="http://www.w3.org/2000/svg"
   xmlns="http://www.w3.org/2000/svg"
   version="1.1"
   id="svg2"
   viewBox="0 0 1948.8188 708.66142"
   height="200mm"
   width="550mm">
  <defs
     id="defs4">
    <marker
       orient="auto"
       refY="0"
       refX="0"
       id="marker7940"
       style="overflow:visible">
      <path
         id="path7942"
         d="M 0,0 5,-5 -12.5,0 5,5 0,0 Z"
         style="fill:#294270;fill-opacity:1;fill-rule:evenodd;stroke:#294270;stroke-width:1pt;stroke-opacity:1"
         transform="matrix(0.4,0,0,0.4,4,0)" />
    </marker>
    <marker
       orient="auto"
       refY="0"
       refX="0"
       id="marker7585"
       style="overflow:visible">
      <path
         id="path7587"
         d="M 0,0 5,-5 -12.5,0 5,5 0,0 Z"
         style="fill:#294270;fill-opacity:1;fill-rule:evenodd;stroke:#294270;stroke-width:1pt;stroke-opacity:1"
         transform="matrix(0.4,0,0,0.4,4,0)" />
    </marker>
    <marker
       orient="auto"
       refY="0"
       refX="0"
       id="marker7449"
       style="overflow:visible">
      <path
         id="path7451"
         d="M 0,0 5,-5 -12.5,0 5,5 0,0 Z"
         style="fill:#294270;fill-opacity:1;fill-rule:evenodd;stroke:#294270;stroke-width:1pt;stroke-opacity:1"
         transform="matrix(0.4,0,0,0.4,4,0)" />
    </marker>
    <marker
       orient="auto"
       refY="0"
       refX="0"
       id="marker7325"
       style="overflow:visible">
      <path
         id="path7327"
         d="M 0,0 5,-5 -12.5,0 5,5 0,0 Z"
         style="fill:#294270;fill-opacity:1;fill-rule:evenodd;stroke:#294270;stroke-width:1pt;stroke-opacity:1"
         transform="matrix(0.4,0,0,0.4,4,0)" />
    </marker>
    <marker
       style="overflow:visible"
       id="marker7196"
       refX="0"
       refY="0"
       orient="auto">
      <path
         transform="matrix(0.4,0,0,0.4,4,0)"
         style="fill:#294270;fill-opacity:1;fill-rule:evenodd;stroke:#294270;stroke-width:1pt;stroke-opacity:1"
         d="M 0,0 5,-5 -12.5,0 5,5 0,0 Z"
         id="path6946" />
    </marker>
    <marker
       style="overflow:visible"
       id="Arrow1Mstart"
       refX="0"
       refY="0"
       orient="auto">
      <path
         transform="matrix(0.4,0,0,0.4,4,0)"
         style="fill:#f0801a;fill-opacity:1;fill-rule:evenodd;stroke:#f0801a;stroke-width:1pt;stroke-opacity:1"
         d="M 0,0 5,-5 -12.5,0 5,5 0,0 Z"
         id="path4200" />
    </marker>
    <marker
       style="overflow:visible"
       id="Arrow1Lstart"
       refX="0"
       refY="0"
       orient="auto">
      <path
         transform="matrix(0.8,0,0,0.8,10,0)"
         style="fill:#f0801a;fill-opacity:1;fill-rule:evenodd;stroke:#f0801a;stroke-width:1pt;stroke-opacity:1"
         d="M 0,0 5,-5 -12.5,0 5,5 0,0 Z"
         id="path4194" />
    </marker>
    <marker
       style="overflow:visible"
       id="Arrow1Mstart-3"
       refX="0"
       refY="0"
       orient="auto">
      <path
         transform="matrix(0.4,0,0,0.4,4,0)"
         style="fill:#f0801a;fill-opacity:1;fill-rule:evenodd;stroke:#f0801a;stroke-width:1pt;stroke-opacity:1"
         d="M 0,0 5,-5 -12.5,0 5,5 0,0 Z"
         id="path4200-6" />
    </marker>
    <marker
       style="overflow:visible"
       id="Arrow1Mstart-5"
       refX="0"
       refY="0"
       orient="auto">
      <path
         transform="matrix(0.4,0,0,0.4,4,0)"
         style="fill:#f0801a;fill-opacity:1;fill-rule:evenodd;stroke:#f0801a;stroke-width:1pt;stroke-opacity:1"
         d="M 0,0 5,-5 -12.5,0 5,5 0,0 Z"
         id="path4200-3" />
    </marker>
    <marker
       style="overflow:visible"
       id="Arrow1Mstart-6"
       refX="0"
       refY="0"
       orient="auto">
      <path
         transform="matrix(0.4,0,0,0.4,4,0)"
         style="fill:#f0801a;fill-opacity:1;fill-rule:evenodd;stroke:#f0801a;stroke-width:1pt;stroke-opacity:1"
         d="M 0,0 5,-5 -12.5,0 5,5 0,0 Z"
         id="path4200-2" />
    </marker>
    <marker
       style="overflow:visible"
       id="Arrow1Mstart-6-6"
       refX="0"
       refY="0"
       orient="auto">
      <path
         transform="matrix(0.4,0,0,0.4,4,0)"
         style="fill:#f0801a;fill-opacity:1;fill-rule:evenodd;stroke:#f0801a;stroke-width:1pt;stroke-opacity:1"
         d="M 0,0 5,-5 -12.5,0 5,5 0,0 Z"
         id="path4200-2-1" />
    </marker>
    <marker
       style="overflow:visible"
       id="Arrow1Mstart-6-7"
       refX="0"
       refY="0"
       orient="auto">
      <path
         transform="matrix(0.4,0,0,0.4,4,0)"
         style="fill:#f0801a;fill-opacity:1;fill-rule:evenodd;stroke:#f0801a;stroke-width:1pt;stroke-opacity:1"
         d="M 0,0 5,-5 -12.5,0 5,5 0,0 Z"
         id="path4200-2-9" />
    </marker>
    <marker
       style="overflow:visible"
       id="Arrow1Mstart-3-0"
       refX="0"
       refY="0"
       orient="auto">
      <path
         transform="matrix(0.4,0,0,0.4,4,0)"
         style="fill:#f0801a;fill-opacity:1;fill-rule:evenodd;stroke:#f0801a;stroke-width:1pt;stroke-opacity:1"
         d="M 0,0 5,-5 -12.5,0 5,5 0,0 Z"
         id="path4200-6-6" />
    </marker>
    <marker
       style="overflow:visible"
       id="Arrow1Mstart-3-2"
       refX="0"
       refY="0"
       orient="auto">
      <path
         transform="matrix(0.4,0,0,0.4,4,0)"
         style="fill:#f0801a;fill-opacity:1;fill-rule:evenodd;stroke:#f0801a;stroke-width:1pt;stroke-opacity:1"
         d="M 0,0 5,-5 -12.5,0 5,5 0,0 Z"
         id="path4200-6-0" />
    </marker>
    <marker
       style="overflow:visible"
       id="Arrow1Mstart-3-1"
       refX="0"
       refY="0"
       orient="auto">
      <path
         transform="matrix(0.4,0,0,0.4,4,0)"
         style="fill:#f0801a;fill-opacity:1;fill-rule:evenodd;stroke:#f0801a;stroke-width:1pt;stroke-opacity:1"
         d="M 0,0 5,-5 -12.5,0 5,5 0,0 Z"
         id="path4200-6-5" />
    </marker>
  </defs>
  <metadata
     id="metadata7">
    <rdf:RDF>
      <cc:Work
         rdf:about="">
        <dc:format>image/svg+xml</dc:format>
        <dc:type
           rdf:resource="http://purl.org/dc/dcmitype/StillImage" />
        <dc:title></dc:title>
      </cc:Work>
    </rdf:RDF>
  </metadata>
  <rect
     style="fill:#c9ebfb;fill-opacity:1;stroke:none;stroke-width:18.2091732;stroke-linecap:round;stroke-miterlimit:4;stroke-dasharray:none;stroke-opacity:1;paint-order:markers stroke fill"
     id="rect7624"
     width="2065.7869"
     height="772.526"
     x="-57.866409"
     y="-35.200665" />
  <g
     transform="matrix(1.1875,0,0,1.1875,-1702.5596,-452.60153)"
     id="layer1">
    <rect
       id="rect11175"
       height="341.05261"
       width="202.10527"
       style="fill:#006ca9;fill-opacity:1"
       y="474.81808"
       x="1554.2664" />
    <polygon
       id="polygon11177"
       points="13,3.5 13,57.5 10,57.5 10,0.5 "
       style="fill:#294270;fill-opacity:1"
       transform="matrix(6.3157894,0,0,6.3157894,1472.161,452.71263)" />
    <polygon
       id="polygon11179"
       points="45,3.5 45,57.5 48,57.5 48,0.5 "
       style="fill:#294270;fill-opacity:1"
       transform="matrix(6.3157894,0,0,6.3157894,1472.161,452.71263)" />
    <polygon
       id="polygon11181"
       points="48,0.5 45,3.5 13,3.5 10,0.5 "
       style="fill:#294270;fill-opacity:1"
       transform="matrix(6.3157894,0,0,6.3157894,1472.161,452.71263)" />
    <rect
       id="rect11175-5"
       height="341.05261"
       width="202.10527"
       style="fill:#006ca9;fill-opacity:1"
       y="475.77261"
       x="1849.7803" />
    <polygon
       id="polygon11177-0"
       points="10,0.5 13,3.5 13,57.5 10,57.5 "
       style="fill:#294270;fill-opacity:1"
       transform="matrix(6.3157894,0,0,6.3157894,1767.675,453.66714)" />
    <polygon
       id="polygon11179-6"
       points="48,0.5 45,3.5 45,57.5 48,57.5 "
       style="fill:#294270;fill-opacity:1"
       transform="matrix(6.3157894,0,0,6.3157894,1767.675,453.66714)" />
    <polygon
       id="polygon11181-4"
       points="10,0.5 48,0.5 45,3.5 13,3.5 "
       style="fill:#294270;fill-opacity:1"
       transform="matrix(6.3157894,0,0,6.3157894,1767.675,453.66714)" />
    <rect
       id="rect11175-6"
       height="341.05261"
       width="202.10527"
       style="fill:#006ca9;fill-opacity:1"
       y="476.11401"
       x="2149.2361" />
    <polygon
       id="polygon11177-2"
       points="10,0.5 13,3.5 13,57.5 10,57.5 "
       style="fill:#294270;fill-opacity:1"
       transform="matrix(6.3157894,0,0,6.3157894,2067.1306,454.00856)" />
    <polygon
       id="polygon11179-5"
       points="48,0.5 45,3.5 45,57.5 48,57.5 "
       style="fill:#294270;fill-opacity:1"
       transform="matrix(6.3157894,0,0,6.3157894,2067.1306,454.00856)" />
    <polygon
       id="polygon11181-8"
       points="10,0.5 48,0.5 45,3.5 13,3.5 "
       style="fill:#294270;fill-opacity:1"
       transform="matrix(6.3157894,0,0,6.3157894,2067.1306,454.00856)" />
    <rect
       id="rect11175-62"
       height="341.05261"
       width="202.10527"
       style="fill:#006ca9;fill-opacity:1"
       y="476.27124"
       x="2460.106" />
    <polygon
       id="polygon11177-8"
       points="13,3.5 13,57.5 10,57.5 10,0.5 "
       style="fill:#294270;fill-opacity:1"
       transform="matrix(6.3157894,0,0,6.3157894,2378.0005,454.16579)" />
    <polygon
       id="polygon11179-4"
       points="45,3.5 45,57.5 48,57.5 48,0.5 "
       style="fill:#294270;fill-opacity:1"
       transform="matrix(6.3157894,0,0,6.3157894,2378.0005,454.16579)" />
    <polygon
       id="polygon11181-7"
       points="48,0.5 45,3.5 13,3.5 10,0.5 "
       style="fill:#294270;fill-opacity:1"
       transform="matrix(6.3157894,0,0,6.3157894,2378.0005,454.16579)" />
    <rect
       id="rect11175-2"
       height="341.05261"
       width="202.10527"
       style="fill:#006ca9;fill-opacity:1"
       y="476.8215"
       x="2764.4805" />
    <polygon
       id="polygon11177-4"
       points="13,57.5 10,57.5 10,0.5 13,3.5 "
       style="fill:#294270;fill-opacity:1"
       transform="matrix(6.3157894,0,0,6.3157894,2682.375,454.71607)" />
    <polygon
       id="polygon11179-0"
       points="45,57.5 48,57.5 48,0.5 45,3.5 "
       style="fill:#294270;fill-opacity:1"
       transform="matrix(6.3157894,0,0,6.3157894,2682.375,454.71607)" />
    <polygon
       id="polygon11181-6"
       points="45,3.5 13,3.5 10,0.5 48,0.5 "
       style="fill:#294270;fill-opacity:1"
       transform="matrix(6.3157894,0,0,6.3157894,2682.375,454.71607)" />
    <text
       id="text4136-6-9-3"
       y="708.3371"
       x="1925.1918"
       style="font-style:normal;font-weight:normal;font-size:93.75px;line-height:125%;font-family:sans-serif;letter-spacing:0px;word-spacing:0px;fill:#294270;fill-opacity:1;stroke:none;stroke-width:1px;stroke-linecap:butt;stroke-linejoin:miter;stroke-opacity:1"
       xml:space="preserve"><tspan
         style="font-style:normal;font-variant:normal;font-weight:normal;font-stretch:normal;font-family:Roboto;-inkscape-font-specification:Roboto;fill:#294270;fill-opacity:1"
         id="tspan4142-6-7-6"
         y="942.71216"
         x="1925.1918">2</tspan></text>
    <text
       id="text4136-6-9-1-9"
       y="707.54803"
       x="1623.0988"
       style="font-style:normal;font-weight:normal;font-size:93.75px;line-height:125%;font-family:sans-serif;letter-spacing:0px;word-spacing:0px;fill:#294270;fill-opacity:1;stroke:none;stroke-width:1px;stroke-linecap:butt;stroke-linejoin:miter;stroke-opacity:1"
       xml:space="preserve"><tspan
         style="font-style:normal;font-variant:normal;font-weight:normal;font-stretch:normal;font-family:Roboto;-inkscape-font-specification:Roboto;fill:#f0801a;fill-opacity:1"
         id="tspan4142-6-7-2-3"
         y="941.92291"
         x="1623.0988">1</tspan></text>
    <text
       id="text4136-6-9-6"
       y="392.74829"
       x="1579.5002"
       style="font-style:normal;font-weight:normal;font-size:93.75px;line-height:125%;font-family:sans-serif;letter-spacing:0px;word-spacing:0px;fill:#294270;fill-opacity:1;stroke:none;stroke-width:1px;stroke-linecap:butt;stroke-linejoin:miter;stroke-opacity:1"
       xml:space="preserve"><tspan
         style="font-style:normal;font-variant:normal;font-weight:normal;font-stretch:normal;font-family:Roboto;-inkscape-font-specification:Roboto;fill:#294270;fill-opacity:1"
         id="tspan4142-6-7-1"
         y="627.12323"
         x="1579.5002"><tspan
           id="tspan10941"
           style="fill:#f0801a;fill-opacity:1">five</tspan></tspan></text>
    <text
       id="text4136-6-9-3-1"
       y="711.84058"
       x="2224.7375"
       style="font-style:normal;font-weight:normal;font-size:93.75px;line-height:125%;font-family:sans-serif;letter-spacing:0px;word-spacing:0px;fill:#294270;fill-opacity:1;stroke:none;stroke-width:1px;stroke-linecap:butt;stroke-linejoin:miter;stroke-opacity:1"
       xml:space="preserve"><tspan
         style="font-style:normal;font-variant:normal;font-weight:normal;font-stretch:normal;font-family:Roboto;-inkscape-font-specification:Roboto;fill:#294270;fill-opacity:1"
         id="tspan4142-6-7-6-0"
         y="946.21558"
         x="2224.7375">3</tspan></text>
    <text
       id="text4136-6-9-3-5"
       y="711.84052"
       x="2537.2205"
       style="font-style:normal;font-weight:normal;font-size:93.75px;line-height:125%;font-family:sans-serif;letter-spacing:0px;word-spacing:0px;fill:#294270;fill-opacity:1;stroke:none;stroke-width:1px;stroke-linecap:butt;stroke-linejoin:miter;stroke-opacity:1"
       xml:space="preserve"><tspan
         style="font-style:normal;font-variant:normal;font-weight:normal;font-stretch:normal;font-family:Roboto;-inkscape-font-specification:Roboto;fill:#294270;fill-opacity:1"
         id="tspan4142-6-7-6-1"
         y="946.21552"
         x="2537.2205">4</tspan></text>
    <text
       id="text4136-6-9-3-10"
       y="713.40485"
       x="2840.9192"
       style="font-style:normal;font-weight:normal;font-size:93.75px;line-height:125%;font-family:sans-serif;letter-spacing:0px;word-spacing:0px;fill:#294270;fill-opacity:1;stroke:none;stroke-width:1px;stroke-linecap:butt;stroke-linejoin:miter;stroke-opacity:1"
       xml:space="preserve"><tspan
         style="font-style:normal;font-variant:normal;font-weight:normal;font-stretch:normal;font-family:Roboto;-inkscape-font-specification:Roboto;fill:#294270;fill-opacity:1"
         id="tspan4142-6-7-6-8"
         y="947.77985"
         x="2840.9192">5</tspan></text>
    <g
       id="g11191"
       transform="matrix(6.3157894,0,0,6.3157894,1130.0312,413.83424)" />
    <g
       id="g11193"
       transform="matrix(6.3157894,0,0,6.3157894,1130.0312,413.83424)" />
    <g
       id="g11195"
       transform="matrix(6.3157894,0,0,6.3157894,1130.0312,413.83424)" />
    <g
       id="g11197"
       transform="matrix(6.3157894,0,0,6.3157894,1130.0312,413.83424)" />
    <g
       id="g11199"
       transform="matrix(6.3157894,0,0,6.3157894,1130.0312,413.83424)" />
    <g
       id="g11201"
       transform="matrix(6.3157894,0,0,6.3157894,1130.0312,413.83424)" />
    <g
       id="g11203"
       transform="matrix(6.3157894,0,0,6.3157894,1130.0312,413.83424)" />
    <g
       id="g11205"
       transform="matrix(6.3157894,0,0,6.3157894,1130.0312,413.83424)" />
    <g
       id="g11207"
       transform="matrix(6.3157894,0,0,6.3157894,1130.0312,413.83424)" />
    <g
       id="g11209"
       transform="matrix(6.3157894,0,0,6.3157894,1130.0312,413.83424)" />
    <g
       id="g11211"
       transform="matrix(6.3157894,0,0,6.3157894,1130.0312,413.83424)" />
    <g
       id="g11213"
       transform="matrix(6.3157894,0,0,6.3157894,1130.0312,413.83424)" />
    <g
       id="g11215"
       transform="matrix(6.3157894,0,0,6.3157894,1130.0312,413.83424)" />
    <g
       id="g11217"
       transform="matrix(6.3157894,0,0,6.3157894,1130.0312,413.83424)" />
    <g
       id="g11219"
       transform="matrix(6.3157894,0,0,6.3157894,1130.0312,413.83424)" />
    <text
       id="text4136-6-9-6-2"
       y="391.96463"
       x="1865.5085"
       style="font-style:normal;font-weight:normal;font-size:93.75px;line-height:125%;font-family:sans-serif;letter-spacing:0px;word-spacing:0px;fill:#294270;fill-opacity:1;stroke:none;stroke-width:1px;stroke-linecap:butt;stroke-linejoin:miter;stroke-opacity:1"
       xml:space="preserve"><tspan
         style="font-style:normal;font-variant:normal;font-weight:normal;font-stretch:normal;font-family:Roboto;-inkscape-font-specification:Roboto;fill:#294270;fill-opacity:1"
         id="tspan4142-6-7-1-9"
         y="626.3396"
         x="1865.5085">four</tspan></text>
    <text
       id="text4136-6-9-6-0"
       y="391.31668"
       x="2171.3518"
       style="font-style:normal;font-weight:normal;font-size:93.75px;line-height:125%;font-family:sans-serif;letter-spacing:0px;word-spacing:0px;fill:#294270;fill-opacity:1;stroke:none;stroke-width:1px;stroke-linecap:butt;stroke-linejoin:miter;stroke-opacity:1"
       xml:space="preserve"><tspan
         style="font-style:normal;font-variant:normal;font-weight:normal;font-stretch:normal;font-family:Roboto;-inkscape-font-specification:Roboto;fill:#294270;fill-opacity:1"
         id="tspan4142-6-7-1-8"
         y="625.69159"
         x="2171.3518">one</tspan></text>
    <text
       transform="scale(0.9438924,1.0594428)"
       id="text4136-6-9-6-3"
       y="368.74927"
       x="2611.4509"
       style="font-style:normal;font-weight:normal;font-size:88.48991394px;line-height:125%;font-family:sans-serif;letter-spacing:0px;word-spacing:0px;fill:#294270;fill-opacity:1;stroke:none;stroke-width:1px;stroke-linecap:butt;stroke-linejoin:miter;stroke-opacity:1"
       xml:space="preserve"><tspan
         style="font-style:normal;font-variant:normal;font-weight:normal;font-stretch:normal;font-family:Roboto;-inkscape-font-specification:Roboto;fill:#294270;fill-opacity:1"
         id="tspan4142-6-7-1-1"
         y="589.974"
         x="2611.4509">three</tspan></text>
    <text
       id="text4136-6-9-6-34"
       y="390.66873"
       x="2792.1104"
       style="font-style:normal;font-weight:normal;font-size:93.75px;line-height:125%;font-family:sans-serif;letter-spacing:0px;word-spacing:0px;fill:#294270;fill-opacity:1;stroke:none;stroke-width:1px;stroke-linecap:butt;stroke-linejoin:miter;stroke-opacity:1"
       xml:space="preserve"><tspan
         style="font-style:normal;font-variant:normal;font-weight:normal;font-stretch:normal;font-family:Roboto;-inkscape-font-specification:Roboto;fill:#294270;fill-opacity:1"
         id="tspan4142-6-7-1-0"
         y="625.04364"
         x="2792.1104">two</tspan></text>
  </g>
</svg>
